<svg width="24" height="24" viewBox="0 0 24 24" fill="none" xmlns="http://www.w3.org/2000/svg">
<path d="M12.0008 21.5613C11.9 21.5613 11.7992 21.5361 11.708 21.4852C7.15277 18.9388 2.23013 15.7932 1.48493 10.6696C1.14365 8.3222 1.69949 6.16964 3.04997 4.60844C4.24301 3.2294 5.94965 2.4386 7.73213 2.4386C9.32597 2.4386 10.8192 3.06692 12.0008 4.2218C13.182 3.06692 14.6753 2.4386 16.2687 2.4386C18.0512 2.4386 19.7576 3.22964 20.9506 4.60868C22.3011 6.16988 22.8567 8.32244 22.5152 10.6696C21.8019 15.5733 16.8661 18.6424 12.5113 21.3504L12.3176 21.4708C12.2208 21.5311 12.1109 21.5613 12.0008 21.5613ZM7.73213 3.6386C6.29813 3.6386 4.92245 4.2782 3.95741 5.39372C2.83829 6.68732 2.38205 8.49956 2.67221 10.4971C3.32309 14.9707 7.76885 17.8896 11.9852 20.2646C16.2862 17.5896 20.6998 14.8128 21.3277 10.4968C21.6183 8.49956 21.1621 6.68732 20.0427 5.39348C19.0779 4.2782 17.7022 3.63836 16.2685 3.63836C14.8203 3.63836 13.4672 4.29548 12.4587 5.489C12.2309 5.75852 11.7701 5.75876 11.5424 5.48924C10.5339 4.29572 9.18053 3.6386 7.73213 3.6386Z" fill="black"/>
</svg>
