<svg width="85" height="85" viewBox="0 0 85 85" fill="none" xmlns="http://www.w3.org/2000/svg">
<path d="M39 4.30008L30 24.0662C29.8008 24.5782 29.3984 25.0903 29 25.4983L41.301 42.8034V2.35573C40.1994 2.66376 39.3985 3.27602 39 4.30008Z" fill="black"/>
<path d="M54.102 23.9618L45.102 4.19572C44.602 3.27563 43.9028 2.55553 42.9028 2.35153V42.5995L55.1018 25.3937C54.6995 24.9857 54.3013 24.5778 54.102 23.9618Z" fill="black"/>
<path d="M81.5001 31.1305C81.0001 30.3104 80.1017 29.6984 79.1017 29.4903L57.9997 26.934C57.3981 26.83 56.8981 26.626 56.3981 26.422L44.1011 43.6278L81.5001 31.1305Z" fill="black"/>
<path d="M44.6021 45.264L64.403 51.8166C64.7038 51.3046 65.0046 50.7925 65.403 50.3845L81.001 35.5351C81.8018 34.8191 82.1026 33.795 82.001 32.7709L44.6021 45.264Z" fill="black"/>
<path d="M63.898 53.3575L44.199 46.8049L67.199 79.2677C67.8005 78.5517 68.0974 77.4235 67.8982 76.3994L63.8982 54.9979C63.8005 54.4818 63.8003 53.9696 63.898 53.3575Z" fill="black"/>
<path d="M42.801 69.0221C43.4026 69.1261 43.9026 69.3301 44.4026 69.5341L63.0006 80.0833C63.8991 80.5954 64.899 80.6994 65.899 80.2873L42.801 47.8245V69.0221Z" fill="black"/>
<path d="M20.8981 80.1878L39.5001 69.6386C40.0001 69.3305 40.6017 69.2305 41.1017 69.1265V47.7249L18.1017 80.2881C19.0001 80.7002 19.9996 80.6998 20.8981 80.1878Z" fill="black"/>
<path d="M20.102 53.3575C20.2036 53.9735 20.2036 54.4856 20.102 55.0976L16.102 76.4992C15.9028 77.5233 16.2036 78.5474 16.8012 79.3675L39.9032 46.8002L20.102 53.3575Z" fill="black"/>
<path d="M19.602 51.8213L39.403 45.2687L2.00104 32.7717C1.89948 33.7958 2.30182 34.8199 3.00104 35.5359L18.501 50.4898C19.001 50.7978 19.3012 51.3093 19.602 51.8213Z" fill="black"/>
<path d="M27.699 26.3183C27.199 26.6263 26.699 26.8303 26.0974 26.8303L4.99545 29.4946C3.99545 29.5986 3.09705 30.2107 2.59705 31.1348L39.995 43.6277L27.699 26.3183Z" fill="black"/>
</svg>
