<svg width="24" height="24" viewBox="0 0 24 24" fill="none" xmlns="http://www.w3.org/2000/svg">
<path d="M20.9913 20.766L15.3007 15.0754C17.9222 12.0173 17.7832 7.39297 14.8847 4.50361C13.4162 3.03961 11.465 2.23297 9.39066 2.23297C7.30698 2.23297 5.34954 3.04537 3.87834 4.52089C2.41098 5.99233 1.60482 7.94833 1.6089 10.0277C1.61274 12.1071 2.42586 14.0599 3.89802 15.5261C5.36562 16.9911 7.31634 17.7977 9.39066 17.7977C11.2689 17.7977 13.0432 17.1353 14.4527 15.924L20.1429 21.6142C20.26 21.7313 20.4136 21.7899 20.5672 21.7899C20.7208 21.7899 20.8742 21.7313 20.9915 21.6142C21.2255 21.3802 21.2255 21.0005 20.9913 20.766ZM4.74522 14.6765C3.49986 13.4362 2.81178 11.7843 2.8089 10.0255C2.80554 8.26681 3.48714 6.61249 4.72818 5.36809C5.97258 4.12033 7.6281 3.43297 9.39066 3.43297C11.1451 3.43297 12.7953 4.11505 14.0375 5.35345C16.6075 7.91569 16.6144 12.0912 14.0534 14.6619C12.809 15.9101 11.153 16.5977 9.39042 16.5977C7.6365 16.5979 5.98698 15.9159 4.74522 14.6765Z" fill="black"/>
</svg>
