<svg width="32" height="32" viewBox="0 0 32 32" fill="none" xmlns="http://www.w3.org/2000/svg">
<g clip-path="url(#clip0_53_203)">
<path d="M16 11.5C15.2089 11.5 14.4355 11.7346 13.7777 12.1741C13.1199 12.6136 12.6072 13.2384 12.3045 13.9693C12.0017 14.7002 11.9225 15.5044 12.0769 16.2804C12.2312 17.0563 12.6122 17.769 13.1716 18.3284C13.731 18.8878 14.4437 19.2688 15.2196 19.4231C15.9956 19.5775 16.7998 19.4983 17.5307 19.1955C18.2616 18.8928 18.8864 18.3801 19.3259 17.7223C19.7654 17.0645 20 16.2911 20 15.5C20 14.4391 19.5786 13.4217 18.8284 12.6716C18.0783 11.9214 17.0609 11.5 16 11.5ZM16 14.5C15.7348 14.5 15.4804 14.6054 15.2929 14.7929C15.1054 14.9804 15 15.2348 15 15.5C15 15.7652 14.8946 16.0196 14.7071 16.2071C14.5196 16.3946 14.2652 16.5 14 16.5C13.7348 16.5 13.4804 16.3946 13.2929 16.2071C13.1054 16.0196 13 15.7652 13 15.5C13 14.7044 13.3161 13.9413 13.8787 13.3787C14.4413 12.8161 15.2044 12.5 16 12.5C16.2652 12.5 16.5196 12.6054 16.7071 12.7929C16.8946 12.9804 17 13.2348 17 13.5C17 13.7652 16.8946 14.0196 16.7071 14.2071C16.5196 14.3946 16.2652 14.5 16 14.5ZM16 6.5C9.51 6.5 4 9.85 2.06 15.04C2.02063 15.156 2.00036 15.2775 2 15.4V15.6C2.00036 15.7225 2.02063 15.844 2.06 15.96C4 21.15 9.51 24.5 16 24.5C22.49 24.5 28 21.15 29.93 15.96C29.9773 15.8459 30.0011 15.7235 30 15.6V15.4C30.0011 15.2765 29.9773 15.1541 29.93 15.04C28 9.85 22.49 6.5 16 6.5ZM16 21.5C14.8133 21.5 13.6533 21.1481 12.6666 20.4888C11.6799 19.8295 10.9108 18.8925 10.4567 17.7961C10.0026 16.6997 9.88378 15.4933 10.1153 14.3295C10.3468 13.1656 10.9182 12.0965 11.7574 11.2574C12.5965 10.4182 13.6656 9.8468 14.8295 9.61529C15.9933 9.38378 17.1997 9.5026 18.2961 9.95672C19.3925 10.4108 20.3295 11.1799 20.9888 12.1666C21.6481 13.1533 22 14.3133 22 15.5C22 17.0913 21.3679 18.6174 20.2426 19.7426C19.1174 20.8679 17.5913 21.5 16 21.5ZM2 6.5V2.5C2 2.23478 2.10536 1.98043 2.29289 1.79289C2.48043 1.60536 2.73478 1.5 3 1.5H7C7.26522 1.5 7.51957 1.60536 7.70711 1.79289C7.89464 1.98043 8 2.23478 8 2.5C8 2.76522 7.89464 3.01957 7.70711 3.20711C7.51957 3.39464 7.26522 3.5 7 3.5H4V6.5C4 6.76522 3.89464 7.01957 3.70711 7.20711C3.51957 7.39464 3.26522 7.5 3 7.5C2.73478 7.5 2.48043 7.39464 2.29289 7.20711C2.10536 7.01957 2 6.76522 2 6.5ZM30 2.5V6.5C30 6.76522 29.8946 7.01957 29.7071 7.20711C29.5196 7.39464 29.2652 7.5 29 7.5C28.7348 7.5 28.4804 7.39464 28.2929 7.20711C28.1054 7.01957 28 6.76522 28 6.5V3.5H25C24.7348 3.5 24.4804 3.39464 24.2929 3.20711C24.1054 3.01957 24 2.76522 24 2.5C24 2.23478 24.1054 1.98043 24.2929 1.79289C24.4804 1.60536 24.7348 1.5 25 1.5H29C29.2652 1.5 29.5196 1.60536 29.7071 1.79289C29.8946 1.98043 30 2.23478 30 2.5ZM8 28.5C8 28.7652 7.89464 29.0196 7.70711 29.2071C7.51957 29.3946 7.26522 29.5 7 29.5H3C2.73478 29.5 2.48043 29.3946 2.29289 29.2071C2.10536 29.0196 2 28.7652 2 28.5V24.5C2 24.2348 2.10536 23.9804 2.29289 23.7929C2.48043 23.6054 2.73478 23.5 3 23.5C3.26522 23.5 3.51957 23.6054 3.70711 23.7929C3.89464 23.9804 4 24.2348 4 24.5V27.5H7C7.26522 27.5 7.51957 27.6054 7.70711 27.7929C7.89464 27.9804 8 28.2348 8 28.5ZM30 24.5V28.5C30 28.7652 29.8946 29.0196 29.7071 29.2071C29.5196 29.3946 29.2652 29.5 29 29.5H25C24.7348 29.5 24.4804 29.3946 24.2929 29.2071C24.1054 29.0196 24 28.7652 24 28.5C24 28.2348 24.1054 27.9804 24.2929 27.7929C24.4804 27.6054 24.7348 27.5 25 27.5H28V24.5C28 24.2348 28.1054 23.9804 28.2929 23.7929C28.4804 23.6054 28.7348 23.5 29 23.5C29.2652 23.5 29.5196 23.6054 29.7071 23.7929C29.8946 23.9804 30 24.2348 30 24.5Z" fill="black"/>
</g>
<defs>
<clipPath id="clip0_53_203">
<rect width="32" height="32" fill="white"/>
</clipPath>
</defs>
</svg>
