<svg width="240" height="208" viewBox="0 0 240 208" fill="none" xmlns="http://www.w3.org/2000/svg">
<path d="M61.4434 205.423L2.88675 104L61.4434 2.57695H178.557L237.113 104L178.557 205.423H61.4434Z" fill="#656D4A" fill-opacity="0.1" stroke="#656D4A" stroke-width="5"/>
<path d="M47.6651 89.408C47.6651 90.736 47.4971 91.944 47.1611 93.032C46.8411 94.104 46.3451 95.032 45.6731 95.816C45.0171 96.6 44.1691 97.2 43.1291 97.616C42.1051 98.032 40.8971 98.24 39.5051 98.24C38.1131 98.24 36.8971 98.032 35.8571 97.616C34.8331 97.184 33.9851 96.584 33.3131 95.816C32.6571 95.032 32.1611 94.096 31.8251 93.008C31.5051 91.92 31.3451 90.712 31.3451 89.384C31.3451 87.608 31.6331 86.064 32.2091 84.752C32.8011 83.44 33.6971 82.424 34.8971 81.704C36.1131 80.968 37.6571 80.6 39.5291 80.6C41.3851 80.6 42.9131 80.968 44.1131 81.704C45.3131 82.424 46.2011 83.448 46.7771 84.776C47.3691 86.088 47.6651 87.632 47.6651 89.408ZM35.1611 89.408C35.1611 90.608 35.3131 91.64 35.6171 92.504C35.9211 93.368 36.3931 94.032 37.0331 94.496C37.6731 94.96 38.4971 95.192 39.5051 95.192C40.5451 95.192 41.3771 94.96 42.0011 94.496C42.6411 94.032 43.1051 93.368 43.3931 92.504C43.6971 91.64 43.8491 90.608 43.8491 89.408C43.8491 87.6 43.5131 86.184 42.8411 85.16C42.1691 84.136 41.0651 83.624 39.5291 83.624C38.5051 83.624 37.6731 83.856 37.0331 84.32C36.3931 84.784 35.9211 85.448 35.6171 86.312C35.3131 87.176 35.1611 88.208 35.1611 89.408ZM51.2147 98V80.864H64.7747V98H61.1507V83.888H54.8387V98H51.2147ZM74.5695 80.864C76.7775 80.864 78.3855 81.344 79.3935 82.304C80.4175 83.248 80.9295 84.552 80.9295 86.216C80.9295 86.968 80.8175 87.688 80.5935 88.376C80.3695 89.048 79.9935 89.656 79.4655 90.2C78.9535 90.728 78.2735 91.144 77.4255 91.448C76.5775 91.752 75.5295 91.904 74.2815 91.904H72.7215V98H69.0975V80.864H74.5695ZM74.3775 83.84H72.7215V88.928H73.9215C74.6095 88.928 75.2015 88.84 75.6975 88.664C76.1935 88.488 76.5775 88.208 76.8495 87.824C77.1215 87.44 77.2575 86.944 77.2575 86.336C77.2575 85.488 77.0255 84.864 76.5615 84.464C76.0975 84.048 75.3695 83.84 74.3775 83.84ZM94.0318 98H84.1678V80.864H94.0318V83.84H87.7918V87.608H93.5998V90.584H87.7918V95H94.0318V98ZM111.014 80.864V94.976H113.294V102.992H109.79V98H99.0615V102.992H95.5575V94.976H96.8775C97.3255 94.08 97.7575 93.136 98.1735 92.144C98.5895 91.152 98.9735 90.088 99.3255 88.952C99.6935 87.816 100.022 86.584 100.31 85.256C100.598 83.912 100.838 82.448 101.03 80.864H111.014ZM103.91 83.888C103.798 84.72 103.638 85.608 103.43 86.552C103.222 87.48 102.974 88.432 102.686 89.408C102.414 90.384 102.11 91.344 101.773 92.288C101.438 93.232 101.078 94.128 100.694 94.976H107.39V83.888H103.91ZM125.79 98H115.926V80.864H125.79V83.84H119.55V87.608H125.358V90.584H119.55V95H125.79V98ZM142.915 98H139.291V83.888H135.091C134.995 84.624 134.891 85.424 134.779 86.288C134.683 87.152 134.571 88.032 134.443 88.928C134.331 89.808 134.211 90.648 134.083 91.448C133.955 92.232 133.827 92.928 133.699 93.536C133.491 94.528 133.211 95.376 132.859 96.08C132.523 96.784 132.051 97.32 131.443 97.688C130.851 98.056 130.075 98.24 129.115 98.24C128.795 98.24 128.491 98.216 128.203 98.168C127.915 98.12 127.643 98.056 127.387 97.976V95C127.595 95.064 127.795 95.12 127.987 95.168C128.195 95.216 128.419 95.24 128.659 95.24C128.979 95.24 129.243 95.136 129.451 94.928C129.659 94.72 129.843 94.368 130.003 93.872C130.163 93.36 130.323 92.656 130.483 91.76C130.563 91.376 130.659 90.832 130.771 90.128C130.883 89.408 131.011 88.568 131.155 87.608C131.315 86.632 131.475 85.576 131.635 84.44C131.795 83.288 131.947 82.096 132.091 80.864H142.915V98ZM157.102 98H147.238V80.864H157.102V83.84H150.862V87.608H156.67V90.584H150.862V95H157.102V98ZM174.708 98H171.084V90.608H164.292V98H160.668V80.864H164.292V87.584H171.084V80.864H174.708V98ZM179.019 80.864H182.283V89.144C182.283 89.544 182.275 89.992 182.259 90.488C182.243 90.984 182.227 91.472 182.211 91.952C182.195 92.416 182.179 92.824 182.163 93.176C182.147 93.512 182.131 93.744 182.115 93.872H182.187L190.107 80.864H194.451V98H191.211V89.768C191.211 89.336 191.219 88.864 191.235 88.352C191.251 87.824 191.267 87.32 191.283 86.84C191.315 86.36 191.339 85.944 191.355 85.592C191.387 85.224 191.411 84.984 191.427 84.872H191.331L183.387 98H179.019V80.864ZM208.641 98H198.777V80.864H208.641V83.84H202.401V87.608H208.209V90.584H202.401V95H208.641V98ZM34.7053 128H31.0813V113.888H26.4253V110.864H39.3613V113.888H34.7053V128ZM57.087 119.408C57.087 120.736 56.919 121.944 56.583 123.032C56.263 124.104 55.767 125.032 55.095 125.816C54.439 126.6 53.591 127.2 52.551 127.616C51.527 128.032 50.319 128.24 48.927 128.24C47.535 128.24 46.319 128.032 45.279 127.616C44.255 127.184 43.407 126.584 42.735 125.816C42.079 125.032 41.583 124.096 41.247 123.008C40.927 121.92 40.767 120.712 40.767 119.384C40.767 117.608 41.055 116.064 41.631 114.752C42.223 113.44 43.119 112.424 44.319 111.704C45.535 110.968 47.079 110.6 48.951 110.6C50.807 110.6 52.335 110.968 53.535 111.704C54.735 112.424 55.623 113.448 56.199 114.776C56.791 116.088 57.087 117.632 57.087 119.408ZM44.583 119.408C44.583 120.608 44.735 121.64 45.039 122.504C45.343 123.368 45.815 124.032 46.455 124.496C47.095 124.96 47.919 125.192 48.927 125.192C49.967 125.192 50.799 124.96 51.423 124.496C52.063 124.032 52.527 123.368 52.815 122.504C53.119 121.64 53.271 120.608 53.271 119.408C53.271 117.6 52.935 116.184 52.263 115.16C51.591 114.136 50.487 113.624 48.951 113.624C47.927 113.624 47.095 113.856 46.455 114.32C45.815 114.784 45.343 115.448 45.039 116.312C44.735 117.176 44.583 118.208 44.583 119.408ZM73.3198 128H69.6958V121.376C68.6878 121.728 67.7598 121.992 66.9118 122.168C66.0798 122.344 65.2398 122.432 64.3918 122.432C62.7918 122.432 61.5358 122.048 60.6238 121.28C59.7278 120.496 59.2798 119.384 59.2798 117.944V110.864H62.9038V116.912C62.9038 117.744 63.0958 118.368 63.4798 118.784C63.8638 119.2 64.5118 119.408 65.4238 119.408C66.0958 119.408 66.7678 119.336 67.4398 119.192C68.1118 119.048 68.8638 118.832 69.6958 118.544V110.864H73.3198V128ZM91.5968 128H87.4688L81.2528 119.312V128H77.6288V110.864H81.2528V119.168L87.3968 110.864H91.2608L85.0208 119.096L91.5968 128ZM93.7538 110.864H97.0178V119.144C97.0178 119.544 97.0098 119.992 96.9938 120.488C96.9778 120.984 96.9618 121.472 96.9458 121.952C96.9298 122.416 96.9138 122.824 96.8978 123.176C96.8818 123.512 96.8658 123.744 96.8498 123.872H96.9218L104.842 110.864H109.186V128H105.946V119.768C105.946 119.336 105.954 118.864 105.97 118.352C105.986 117.824 106.002 117.32 106.018 116.84C106.05 116.36 106.074 115.944 106.09 115.592C106.122 115.224 106.146 114.984 106.162 114.872H106.066L98.1218 128H93.7538V110.864ZM129.914 114.872C129.914 116.024 129.506 116.952 128.69 117.656C127.874 118.36 126.834 118.8 125.57 118.976V119.048C127.138 119.208 128.338 119.648 129.17 120.368C130.018 121.072 130.442 121.992 130.442 123.128C130.442 124.12 130.17 125.008 129.626 125.792C129.082 126.56 128.274 127.16 127.202 127.592C126.13 128.024 124.802 128.24 123.218 128.24C121.922 128.24 120.77 128.16 119.762 128C118.77 127.84 117.906 127.608 117.17 127.304V124.256C117.666 124.496 118.226 124.704 118.85 124.88C119.474 125.04 120.106 125.168 120.746 125.264C121.386 125.344 121.978 125.384 122.522 125.384C124.042 125.384 125.138 125.168 125.81 124.736C126.498 124.288 126.842 123.664 126.842 122.864C126.842 122.048 126.346 121.456 125.354 121.088C124.362 120.704 123.026 120.512 121.346 120.512H119.738V117.68H121.178C122.538 117.68 123.594 117.592 124.346 117.416C125.098 117.24 125.626 116.984 125.93 116.648C126.234 116.312 126.386 115.912 126.386 115.448C126.386 114.856 126.122 114.392 125.594 114.056C125.082 113.704 124.306 113.528 123.266 113.528C122.386 113.528 121.554 113.656 120.77 113.912C120.002 114.168 119.282 114.504 118.61 114.92L117.026 112.496C117.618 112.112 118.242 111.784 118.898 111.512C119.57 111.224 120.306 111.008 121.106 110.864C121.906 110.704 122.794 110.624 123.77 110.624C125.066 110.624 126.17 110.808 127.082 111.176C127.994 111.544 128.69 112.048 129.17 112.688C129.666 113.312 129.914 114.04 129.914 114.872ZM139.116 110.864C141.324 110.864 142.932 111.344 143.94 112.304C144.964 113.248 145.476 114.552 145.476 116.216C145.476 116.968 145.364 117.688 145.14 118.376C144.916 119.048 144.54 119.656 144.012 120.2C143.5 120.728 142.82 121.144 141.972 121.448C141.124 121.752 140.076 121.904 138.828 121.904H137.268V128H133.644V110.864H139.116ZM138.924 113.84H137.268V118.928H138.468C139.156 118.928 139.748 118.84 140.244 118.664C140.74 118.488 141.124 118.208 141.396 117.824C141.668 117.44 141.804 116.944 141.804 116.336C141.804 115.488 141.572 114.864 141.108 114.464C140.644 114.048 139.916 113.84 138.924 113.84ZM158.579 128H148.715V110.864H158.579V113.84H152.339V117.608H158.147V120.584H152.339V125H158.579V128ZM176.184 128H172.56V120.608H165.768V128H162.144V110.864H165.768V117.584H172.56V110.864H176.184V128ZM180.496 110.864H183.76V119.144C183.76 119.544 183.752 119.992 183.736 120.488C183.72 120.984 183.704 121.472 183.688 121.952C183.672 122.416 183.656 122.824 183.64 123.176C183.624 123.512 183.608 123.744 183.592 123.872H183.664L191.584 110.864H195.928V128H192.688V119.768C192.688 119.336 192.696 118.864 192.712 118.352C192.728 117.824 192.744 117.32 192.76 116.84C192.792 116.36 192.816 115.944 192.832 115.592C192.864 115.224 192.888 114.984 192.904 114.872H192.808L184.864 128H180.496V110.864ZM206.014 121.424L202.006 128H197.974L202.846 120.464C202.382 120.272 201.918 119.992 201.454 119.624C200.99 119.24 200.606 118.736 200.302 118.112C199.998 117.472 199.846 116.688 199.846 115.76C199.846 114.176 200.414 112.968 201.55 112.136C202.686 111.288 204.278 110.864 206.326 110.864H211.894V128H208.27V121.424H206.014ZM206.47 113.84C205.846 113.84 205.31 113.912 204.862 114.056C204.43 114.2 204.094 114.432 203.854 114.752C203.63 115.072 203.518 115.496 203.518 116.024C203.518 116.776 203.766 117.376 204.262 117.824C204.774 118.256 205.542 118.472 206.566 118.472H208.27V113.84H206.47Z" fill="black"/>
</svg>
