<svg width="241" height="208" viewBox="0 0 241 208" fill="none" xmlns="http://www.w3.org/2000/svg">
<path d="M61.9434 205.423L3.38675 104L61.9434 2.57695H179.057L237.613 104L179.057 205.423H61.9434Z" fill="#7F4F24" fill-opacity="0.1" stroke="#7F4F24" stroke-width="5"/>
<path d="M39.5753 104.408C39.5753 105.736 39.4073 106.944 39.0713 108.032C38.7513 109.104 38.2553 110.032 37.5833 110.816C36.9273 111.6 36.0793 112.2 35.0393 112.616C34.0153 113.032 32.8073 113.24 31.4153 113.24C30.0233 113.24 28.8073 113.032 27.7673 112.616C26.7433 112.184 25.8953 111.584 25.2233 110.816C24.5673 110.032 24.0713 109.096 23.7353 108.008C23.4153 106.92 23.2553 105.712 23.2553 104.384C23.2553 102.608 23.5433 101.064 24.1193 99.752C24.7113 98.44 25.6073 97.424 26.8073 96.704C28.0233 95.968 29.5673 95.6 31.4393 95.6C33.2953 95.6 34.8233 95.968 36.0233 96.704C37.2233 97.424 38.1113 98.448 38.6873 99.776C39.2793 101.088 39.5753 102.632 39.5753 104.408ZM27.0713 104.408C27.0713 105.608 27.2233 106.64 27.5273 107.504C27.8313 108.368 28.3033 109.032 28.9433 109.496C29.5833 109.96 30.4073 110.192 31.4153 110.192C32.4553 110.192 33.2873 109.96 33.9113 109.496C34.5513 109.032 35.0153 108.368 35.3033 107.504C35.6073 106.64 35.7593 105.608 35.7593 104.408C35.7593 102.6 35.4233 101.184 34.7513 100.16C34.0793 99.136 32.9753 98.624 31.4393 98.624C30.4153 98.624 29.5833 98.856 28.9433 99.32C28.3033 99.784 27.8313 100.448 27.5273 101.312C27.2233 102.176 27.0713 103.208 27.0713 104.408ZM43.1248 113V95.864H53.9488V98.864H46.7488V102.44H48.1888C49.8048 102.44 51.1248 102.664 52.1488 103.112C53.1888 103.56 53.9568 104.176 54.4528 104.96C54.9488 105.744 55.1968 106.64 55.1968 107.648C55.1968 108.768 54.9488 109.728 54.4528 110.528C53.9568 111.328 53.1888 111.944 52.1488 112.376C51.1088 112.792 49.7648 113 48.1168 113H43.1248ZM47.9728 110.024C49.0768 110.024 49.9408 109.848 50.5648 109.496C51.2048 109.144 51.5248 108.528 51.5248 107.648C51.5248 107.04 51.3648 106.576 51.0448 106.256C50.7408 105.936 50.3008 105.72 49.7248 105.608C49.1648 105.48 48.4848 105.416 47.6848 105.416H46.7488V110.024H47.9728ZM71.8455 95.864V109.976H74.1255V117.992H70.6215V113H59.8935V117.992H56.3895V109.976H57.7095C58.1575 109.08 58.5895 108.136 59.0055 107.144C59.4215 106.152 59.8055 105.088 60.1575 103.952C60.5255 102.816 60.8535 101.584 61.1415 100.256C61.4295 98.912 61.6695 97.448 61.8615 95.864H71.8455ZM64.7415 98.888C64.6295 99.72 64.4695 100.608 64.2615 101.552C64.0535 102.48 63.8055 103.432 63.5175 104.408C63.2455 105.384 62.9415 106.344 62.6055 107.288C62.2695 108.232 61.9095 109.128 61.5255 109.976H68.2215V98.888H64.7415ZM85.2057 107.984C84.7257 109.072 84.2137 110.016 83.6697 110.816C83.1417 111.6 82.4617 112.2 81.6297 112.616C80.7977 113.032 79.7097 113.24 78.3657 113.24C77.9497 113.24 77.4937 113.208 76.9977 113.144C76.5017 113.08 76.0457 112.992 75.6297 112.88V109.76C76.0137 109.92 76.4377 110.032 76.9017 110.096C77.3657 110.16 77.7977 110.192 78.1977 110.192C78.7257 110.192 79.1497 110.104 79.4697 109.928C79.8057 109.752 80.0697 109.512 80.2617 109.208C80.4697 108.888 80.6377 108.544 80.7657 108.176L74.8377 95.864H78.6777L81.8697 103.28C81.9497 103.44 82.0457 103.648 82.1577 103.904C82.2697 104.16 82.3817 104.424 82.4937 104.696C82.6057 104.968 82.6937 105.208 82.7577 105.416H82.8777C82.9417 105.224 83.0217 104.992 83.1177 104.72C83.2297 104.432 83.3417 104.144 83.4537 103.856C83.5817 103.552 83.6937 103.288 83.7897 103.064L86.7657 95.864H90.5097L85.2057 107.984ZM99.9197 113L95.7917 99.56H95.6957C95.7117 99.88 95.7357 100.36 95.7677 101C95.7997 101.64 95.8317 102.328 95.8637 103.064C95.8957 103.784 95.9117 104.44 95.9117 105.032V113H92.6717V95.864H97.6157L101.672 108.968H101.744L106.04 95.864H110.984V113H107.6V104.888C107.6 104.344 107.608 103.72 107.624 103.016C107.656 102.312 107.68 101.648 107.696 101.024C107.728 100.384 107.752 99.904 107.768 99.584H107.672L103.256 113H99.9197ZM115.312 113V95.864H118.936V102.44H120.112C121.696 102.44 123 102.664 124.024 103.112C125.048 103.56 125.8 104.176 126.28 104.96C126.776 105.744 127.024 106.64 127.024 107.648C127.024 108.768 126.776 109.728 126.28 110.528C125.784 111.328 125.016 111.944 123.976 112.376C122.952 112.792 121.624 113 119.992 113H115.312ZM119.896 110.024C120.968 110.024 121.808 109.848 122.416 109.496C123.04 109.144 123.352 108.528 123.352 107.648C123.352 107.04 123.208 106.576 122.92 106.256C122.648 105.936 122.24 105.72 121.696 105.608C121.152 105.48 120.496 105.416 119.728 105.416H118.936V110.024H119.896ZM129.112 113V95.864H132.736V113H129.112ZM142.39 95.864C143.91 95.864 145.182 96.008 146.206 96.296C147.246 96.568 148.022 97.024 148.534 97.664C149.062 98.288 149.326 99.136 149.326 100.208C149.326 100.848 149.222 101.432 149.014 101.96C148.806 102.488 148.502 102.92 148.102 103.256C147.718 103.592 147.246 103.808 146.686 103.904V104.024C147.262 104.136 147.782 104.336 148.246 104.624C148.71 104.912 149.078 105.328 149.35 105.872C149.622 106.416 149.758 107.136 149.758 108.032C149.758 109.072 149.502 109.968 148.99 110.72C148.494 111.456 147.774 112.024 146.83 112.424C145.886 112.808 144.766 113 143.47 113H137.062V95.864H142.39ZM142.798 102.656C143.854 102.656 144.582 102.488 144.982 102.152C145.398 101.816 145.606 101.328 145.606 100.688C145.606 100.032 145.366 99.56 144.886 99.272C144.406 98.984 143.646 98.84 142.606 98.84H140.686V102.656H142.798ZM140.686 105.536V110H143.062C144.15 110 144.91 109.792 145.342 109.376C145.774 108.944 145.99 108.376 145.99 107.672C145.99 107.24 145.894 106.864 145.702 106.544C145.526 106.224 145.214 105.976 144.766 105.8C144.318 105.624 143.71 105.536 142.942 105.536H140.686ZM163.675 113L162.427 108.92H156.187L154.939 113H151.027L157.075 95.792H161.515L167.587 113H163.675ZM160.315 101.888C160.235 101.616 160.131 101.272 160.003 100.856C159.875 100.44 159.747 100.016 159.619 99.584C159.491 99.152 159.387 98.776 159.307 98.456C159.227 98.776 159.115 99.176 158.971 99.656C158.843 100.12 158.715 100.568 158.587 101C158.475 101.416 158.387 101.712 158.323 101.888L157.099 105.872H161.563L160.315 101.888ZM183.798 113H180.174V105.608H173.382V113H169.758V95.864H173.382V102.584H180.174V95.864H183.798V113ZM188.109 95.864H191.373V104.144C191.373 104.544 191.365 104.992 191.349 105.488C191.333 105.984 191.317 106.472 191.301 106.952C191.285 107.416 191.269 107.824 191.253 108.176C191.237 108.512 191.221 108.744 191.205 108.872H191.277L199.197 95.864H203.541V113H200.301V104.768C200.301 104.336 200.309 103.864 200.325 103.352C200.341 102.824 200.357 102.32 200.373 101.84C200.405 101.36 200.429 100.944 200.445 100.592C200.477 100.224 200.501 99.984 200.517 99.872H200.421L192.477 113H188.109V95.864ZM217.731 113H207.867V95.864H217.731V98.84H211.491V102.608H217.299V105.584H211.491V110H217.731V113Z" fill="black"/>
</svg>
