<svg width="241" height="208" viewBox="0 0 241 208" fill="none" xmlns="http://www.w3.org/2000/svg">
<path d="M61.9434 205.423L3.38675 104L61.9434 2.57695H179.057L237.613 104L179.057 205.423H61.9434Z" fill="#414833" fill-opacity="0.1" stroke="#414833" stroke-width="5"/>
<path d="M48.3875 113H44.7635V105.608H37.9715V113H34.3475V95.864H37.9715V102.584H44.7635V95.864H48.3875V113ZM63.1871 113L61.9391 108.92H55.6991L54.4511 113H50.5391L56.5871 95.792H61.0271L67.0991 113H63.1871ZM59.8271 101.888C59.7471 101.616 59.6431 101.272 59.5151 100.856C59.3871 100.44 59.2591 100.016 59.1311 99.584C59.0031 99.152 58.8991 98.776 58.8191 98.456C58.7391 98.776 58.6271 99.176 58.4831 99.656C58.3551 100.12 58.2271 100.568 58.0991 101C57.9871 101.416 57.8991 101.712 57.8351 101.888L56.6111 105.872H61.0751L59.8271 101.888ZM69.2694 113V95.864H80.0934V98.864H72.8934V102.44H74.3334C75.9494 102.44 77.2694 102.664 78.2934 103.112C79.3334 103.56 80.1014 104.176 80.5974 104.96C81.0934 105.744 81.3414 106.64 81.3414 107.648C81.3414 108.768 81.0934 109.728 80.5974 110.528C80.1014 111.328 79.3334 111.944 78.2934 112.376C77.2534 112.792 75.9094 113 74.2614 113H69.2694ZM74.1174 110.024C75.2214 110.024 76.0854 109.848 76.7094 109.496C77.3494 109.144 77.6694 108.528 77.6694 107.648C77.6694 107.04 77.5094 106.576 77.1894 106.256C76.8854 105.936 76.4454 105.72 75.8694 105.608C75.3094 105.48 74.6294 105.416 73.8294 105.416H72.8934V110.024H74.1174ZM98.1341 113H94.5101V98.888H90.3101C90.2141 99.624 90.1101 100.424 89.9981 101.288C89.9021 102.152 89.7901 103.032 89.6621 103.928C89.5501 104.808 89.4301 105.648 89.3021 106.448C89.1741 107.232 89.0461 107.928 88.9181 108.536C88.7101 109.528 88.4301 110.376 88.0781 111.08C87.7421 111.784 87.2701 112.32 86.6621 112.688C86.0701 113.056 85.2941 113.24 84.3341 113.24C84.0141 113.24 83.7101 113.216 83.4221 113.168C83.1341 113.12 82.8621 113.056 82.6061 112.976V110C82.8141 110.064 83.0141 110.12 83.2061 110.168C83.4141 110.216 83.6381 110.24 83.8781 110.24C84.1981 110.24 84.4621 110.136 84.6701 109.928C84.8781 109.72 85.0621 109.368 85.2221 108.872C85.3821 108.36 85.5421 107.656 85.7021 106.76C85.7821 106.376 85.8781 105.832 85.9901 105.128C86.1021 104.408 86.2301 103.568 86.3741 102.608C86.5341 101.632 86.6941 100.576 86.8541 99.44C87.0141 98.288 87.1661 97.096 87.3101 95.864H98.1341V113ZM124.585 104.408C124.585 105.736 124.433 106.944 124.129 108.032C123.825 109.104 123.353 110.032 122.713 110.816C122.089 111.6 121.297 112.2 120.337 112.616C119.377 113.032 118.249 113.24 116.953 113.24C115.353 113.24 114.009 112.928 112.921 112.304C111.849 111.664 111.017 110.776 110.425 109.64C109.849 108.488 109.497 107.144 109.369 105.608H106.081V113H102.457V95.864H106.081V102.584H109.441C109.617 101.16 110.001 99.928 110.593 98.888C111.201 97.832 112.033 97.024 113.089 96.464C114.145 95.888 115.441 95.6 116.977 95.6C118.705 95.6 120.129 95.968 121.249 96.704C122.385 97.424 123.225 98.448 123.769 99.776C124.313 101.088 124.585 102.632 124.585 104.408ZM113.089 104.408C113.089 105.608 113.225 106.64 113.497 107.504C113.769 108.368 114.193 109.032 114.769 109.496C115.345 109.96 116.073 110.192 116.953 110.192C117.865 110.192 118.609 109.96 119.185 109.496C119.761 109.032 120.177 108.368 120.433 107.504C120.705 106.64 120.841 105.608 120.841 104.408C120.841 103.208 120.705 102.176 120.433 101.312C120.177 100.448 119.761 99.784 119.185 99.32C118.625 98.856 117.897 98.624 117.001 98.624C116.105 98.624 115.361 98.856 114.769 99.32C114.193 99.784 113.769 100.448 113.497 101.312C113.225 102.176 113.089 103.208 113.089 104.408ZM141.092 95.864V109.976H143.372V117.992H139.868V113H129.14V117.992H125.636V109.976H126.956C127.404 109.08 127.836 108.136 128.252 107.144C128.668 106.152 129.052 105.088 129.404 103.952C129.772 102.816 130.1 101.584 130.388 100.256C130.676 98.912 130.916 97.448 131.108 95.864H141.092ZM133.988 98.888C133.876 99.72 133.716 100.608 133.508 101.552C133.3 102.48 133.052 103.432 132.764 104.408C132.492 105.384 132.188 106.344 131.852 107.288C131.516 108.232 131.156 109.128 130.772 109.976H137.468V98.888H133.988ZM155.868 113H146.004V95.864H155.868V98.84H149.628V102.608H155.436V105.584H149.628V110H155.868V113ZM173.473 113H169.849V105.608H163.057V113H159.433V95.864H163.057V102.584H169.849V95.864H173.473V113ZM177.785 95.864H181.049V104.144C181.049 104.544 181.041 104.992 181.025 105.488C181.009 105.984 180.993 106.472 180.977 106.952C180.961 107.416 180.945 107.824 180.929 108.176C180.913 108.512 180.897 108.744 180.881 108.872H180.953L188.873 95.864H193.217V113H189.977V104.768C189.977 104.336 189.985 103.864 190.001 103.352C190.017 102.824 190.033 102.32 190.049 101.84C190.081 101.36 190.105 100.944 190.121 100.592C190.153 100.224 190.177 99.984 190.193 99.872H190.097L182.153 113H177.785V95.864ZM207.407 113H197.543V95.864H207.407V98.84H201.167V102.608H206.975V105.584H201.167V110H207.407V113Z" fill="black"/>
</svg>
