<svg width="240" height="208" viewBox="0 0 240 208" fill="none" xmlns="http://www.w3.org/2000/svg">
<path d="M0 104L60 0.0769501H180L240 104L180 207.923H60L0 104Z" fill="#936639"/>
<path d="M49.2687 80.864C51.4767 80.864 53.0847 81.344 54.0927 82.304C55.1167 83.248 55.6287 84.552 55.6287 86.216C55.6287 86.968 55.5167 87.688 55.2927 88.376C55.0687 89.048 54.6927 89.656 54.1647 90.2C53.6527 90.728 52.9727 91.144 52.1247 91.448C51.2767 91.752 50.2287 91.904 48.9807 91.904H47.4207V98H43.7967V80.864H49.2687ZM49.0767 83.84H47.4207V88.928H48.6207C49.3087 88.928 49.9007 88.84 50.3967 88.664C50.8927 88.488 51.2767 88.208 51.5487 87.824C51.8207 87.44 51.9567 86.944 51.9567 86.336C51.9567 85.488 51.7247 84.864 51.2607 84.464C50.7967 84.048 50.0687 83.84 49.0767 83.84ZM68.1597 98L66.9117 93.92H60.6717L59.4237 98H55.5117L61.5597 80.792H65.9997L72.0717 98H68.1597ZM64.7997 86.888C64.7197 86.616 64.6157 86.272 64.4877 85.856C64.3597 85.44 64.2317 85.016 64.1037 84.584C63.9757 84.152 63.8717 83.776 63.7917 83.456C63.7117 83.776 63.5997 84.176 63.4557 84.656C63.3277 85.12 63.1997 85.568 63.0717 86C62.9597 86.416 62.8717 86.712 62.8077 86.888L61.5837 90.872H66.0477L64.7997 86.888ZM86.074 84.872C86.074 86.024 85.666 86.952 84.85 87.656C84.034 88.36 82.994 88.8 81.73 88.976V89.048C83.298 89.208 84.498 89.648 85.33 90.368C86.178 91.072 86.602 91.992 86.602 93.128C86.602 94.12 86.33 95.008 85.786 95.792C85.242 96.56 84.434 97.16 83.362 97.592C82.29 98.024 80.962 98.24 79.378 98.24C78.082 98.24 76.93 98.16 75.922 98C74.93 97.84 74.066 97.608 73.33 97.304V94.256C73.826 94.496 74.386 94.704 75.01 94.88C75.634 95.04 76.266 95.168 76.906 95.264C77.546 95.344 78.138 95.384 78.682 95.384C80.202 95.384 81.298 95.168 81.97 94.736C82.658 94.288 83.002 93.664 83.002 92.864C83.002 92.048 82.506 91.456 81.514 91.088C80.522 90.704 79.186 90.512 77.506 90.512H75.898V87.68H77.338C78.698 87.68 79.754 87.592 80.506 87.416C81.258 87.24 81.786 86.984 82.09 86.648C82.394 86.312 82.546 85.912 82.546 85.448C82.546 84.856 82.282 84.392 81.754 84.056C81.242 83.704 80.466 83.528 79.426 83.528C78.546 83.528 77.714 83.656 76.93 83.912C76.162 84.168 75.442 84.504 74.77 84.92L73.186 82.496C73.778 82.112 74.402 81.784 75.058 81.512C75.73 81.224 76.466 81.008 77.266 80.864C78.066 80.704 78.954 80.624 79.93 80.624C81.226 80.624 82.33 80.808 83.242 81.176C84.154 81.544 84.85 82.048 85.33 82.688C85.826 83.312 86.074 84.04 86.074 84.872ZM95.2765 80.864C97.4845 80.864 99.0925 81.344 100.101 82.304C101.125 83.248 101.637 84.552 101.637 86.216C101.637 86.968 101.525 87.688 101.301 88.376C101.077 89.048 100.701 89.656 100.173 90.2C99.6605 90.728 98.9805 91.144 98.1325 91.448C97.2845 91.752 96.2365 91.904 94.9885 91.904H93.4285V98H89.8045V80.864H95.2765ZM95.0845 83.84H93.4285V88.928H94.6285C95.3165 88.928 95.9085 88.84 96.4045 88.664C96.9005 88.488 97.2845 88.208 97.5565 87.824C97.8285 87.44 97.9645 86.944 97.9645 86.336C97.9645 85.488 97.7325 84.864 97.2685 84.464C96.8045 84.048 96.0765 83.84 95.0845 83.84ZM114.168 98L112.92 93.92H106.68L105.432 98H101.52L107.568 80.792H112.008L118.08 98H114.168ZM110.808 86.888C110.728 86.616 110.624 86.272 110.496 85.856C110.368 85.44 110.24 85.016 110.112 84.584C109.984 84.152 109.88 83.776 109.8 83.456C109.72 83.776 109.608 84.176 109.464 84.656C109.336 85.12 109.208 85.568 109.08 86C108.968 86.416 108.88 86.712 108.816 86.888L107.592 90.872H112.056L110.808 86.888ZM120.25 98V80.864H131.074V83.864H123.874V87.44H125.314C126.93 87.44 128.25 87.664 129.274 88.112C130.314 88.56 131.082 89.176 131.578 89.96C132.074 90.744 132.322 91.64 132.322 92.648C132.322 93.768 132.074 94.728 131.578 95.528C131.082 96.328 130.314 96.944 129.274 97.376C128.234 97.792 126.89 98 125.242 98H120.25ZM125.098 95.024C126.202 95.024 127.066 94.848 127.69 94.496C128.33 94.144 128.65 93.528 128.65 92.648C128.65 92.04 128.49 91.576 128.17 91.256C127.866 90.936 127.426 90.72 126.85 90.608C126.29 90.48 125.61 90.416 124.81 90.416H123.874V95.024H125.098ZM151.107 89.408C151.107 90.736 150.939 91.944 150.603 93.032C150.283 94.104 149.787 95.032 149.115 95.816C148.459 96.6 147.611 97.2 146.571 97.616C145.547 98.032 144.339 98.24 142.947 98.24C141.555 98.24 140.339 98.032 139.299 97.616C138.275 97.184 137.427 96.584 136.755 95.816C136.099 95.032 135.603 94.096 135.267 93.008C134.947 91.92 134.787 90.712 134.787 89.384C134.787 87.608 135.075 86.064 135.651 84.752C136.243 83.44 137.139 82.424 138.339 81.704C139.555 80.968 141.099 80.6 142.971 80.6C144.827 80.6 146.355 80.968 147.555 81.704C148.755 82.424 149.643 83.448 150.219 84.776C150.811 86.088 151.107 87.632 151.107 89.408ZM138.603 89.408C138.603 90.608 138.755 91.64 139.059 92.504C139.363 93.368 139.835 94.032 140.475 94.496C141.115 94.96 141.939 95.192 142.947 95.192C143.987 95.192 144.819 94.96 145.443 94.496C146.083 94.032 146.547 93.368 146.835 92.504C147.139 91.64 147.291 90.608 147.291 89.408C147.291 87.6 146.955 86.184 146.283 85.16C145.611 84.136 144.507 83.624 142.971 83.624C141.947 83.624 141.115 83.856 140.475 84.32C139.835 84.784 139.363 85.448 139.059 86.312C138.755 87.176 138.603 88.208 138.603 89.408ZM160.53 98H156.906V83.888H152.25V80.864H165.186V83.888H160.53V98ZM181.796 98H177.668L171.452 89.312V98H167.828V80.864H171.452V89.168L177.596 80.864H181.46L175.22 89.096L181.796 98ZM194.441 98L193.193 93.92H186.953L185.705 98H181.793L187.841 80.792H192.281L198.353 98H194.441ZM191.081 86.888C191.001 86.616 190.897 86.272 190.769 85.856C190.641 85.44 190.513 85.016 190.385 84.584C190.257 84.152 190.153 83.776 190.073 83.456C189.993 83.776 189.881 84.176 189.737 84.656C189.609 85.12 189.481 85.568 189.353 86C189.241 86.416 189.153 86.712 189.089 86.888L187.865 90.872H192.329L191.081 86.888ZM46.5389 128V110.864H60.0989V128H56.4749V113.888H50.1629V128H46.5389ZM69.8937 110.864C72.1017 110.864 73.7097 111.344 74.7177 112.304C75.7417 113.248 76.2537 114.552 76.2537 116.216C76.2537 116.968 76.1417 117.688 75.9177 118.376C75.6937 119.048 75.3177 119.656 74.7897 120.2C74.2777 120.728 73.5977 121.144 72.7497 121.448C71.9017 121.752 70.8537 121.904 69.6057 121.904H68.0457V128H64.4217V110.864H69.8937ZM69.7017 113.84H68.0457V118.928H69.2457C69.9337 118.928 70.5257 118.84 71.0217 118.664C71.5177 118.488 71.9017 118.208 72.1737 117.824C72.4457 117.44 72.5817 116.944 72.5817 116.336C72.5817 115.488 72.3497 114.864 71.8857 114.464C71.4217 114.048 70.6937 113.84 69.7017 113.84ZM95.044 119.408C95.044 120.736 94.876 121.944 94.54 123.032C94.22 124.104 93.724 125.032 93.052 125.816C92.396 126.6 91.548 127.2 90.508 127.616C89.484 128.032 88.276 128.24 86.884 128.24C85.492 128.24 84.276 128.032 83.236 127.616C82.212 127.184 81.364 126.584 80.692 125.816C80.036 125.032 79.54 124.096 79.204 123.008C78.884 121.92 78.724 120.712 78.724 119.384C78.724 117.608 79.012 116.064 79.588 114.752C80.18 113.44 81.076 112.424 82.276 111.704C83.492 110.968 85.036 110.6 86.908 110.6C88.764 110.6 90.292 110.968 91.492 111.704C92.692 112.424 93.58 113.448 94.156 114.776C94.748 116.088 95.044 117.632 95.044 119.408ZM82.54 119.408C82.54 120.608 82.692 121.64 82.996 122.504C83.3 123.368 83.772 124.032 84.412 124.496C85.052 124.96 85.876 125.192 86.884 125.192C87.924 125.192 88.756 124.96 89.38 124.496C90.02 124.032 90.484 123.368 90.772 122.504C91.076 121.64 91.228 120.608 91.228 119.408C91.228 117.6 90.892 116.184 90.22 115.16C89.548 114.136 88.444 113.624 86.908 113.624C85.884 113.624 85.052 113.856 84.412 114.32C83.772 114.784 83.3 115.448 82.996 116.312C82.692 117.176 82.54 118.208 82.54 119.408ZM104.467 128H100.843V113.888H96.187V110.864H109.123V113.888H104.467V128ZM126.849 119.408C126.849 120.736 126.681 121.944 126.345 123.032C126.025 124.104 125.529 125.032 124.857 125.816C124.201 126.6 123.353 127.2 122.313 127.616C121.289 128.032 120.081 128.24 118.689 128.24C117.297 128.24 116.081 128.032 115.041 127.616C114.017 127.184 113.169 126.584 112.497 125.816C111.841 125.032 111.345 124.096 111.009 123.008C110.689 121.92 110.529 120.712 110.529 119.384C110.529 117.608 110.817 116.064 111.393 114.752C111.985 113.44 112.881 112.424 114.081 111.704C115.297 110.968 116.841 110.6 118.713 110.6C120.569 110.6 122.097 110.968 123.297 111.704C124.497 112.424 125.385 113.448 125.961 114.776C126.553 116.088 126.849 117.632 126.849 119.408ZM114.345 119.408C114.345 120.608 114.497 121.64 114.801 122.504C115.105 123.368 115.577 124.032 116.217 124.496C116.857 124.96 117.681 125.192 118.689 125.192C119.729 125.192 120.561 124.96 121.185 124.496C121.825 124.032 122.289 123.368 122.577 122.504C122.881 121.64 123.033 120.608 123.033 119.408C123.033 117.6 122.697 116.184 122.025 115.16C121.353 114.136 120.249 113.624 118.713 113.624C117.689 113.624 116.857 113.856 116.217 114.32C115.577 114.784 115.105 115.448 114.801 116.312C114.497 117.176 114.345 118.208 114.345 119.408ZM136.272 128H132.648V113.888H127.992V110.864H140.928V113.888H136.272V128ZM143.57 110.864H146.834V119.144C146.834 119.544 146.826 119.992 146.81 120.488C146.794 120.984 146.778 121.472 146.762 121.952C146.746 122.416 146.73 122.824 146.714 123.176C146.698 123.512 146.682 123.744 146.666 123.872H146.738L154.658 110.864H159.002V128H155.762V119.768C155.762 119.336 155.77 118.864 155.786 118.352C155.802 117.824 155.818 117.32 155.834 116.84C155.866 116.36 155.89 115.944 155.906 115.592C155.938 115.224 155.962 114.984 155.978 114.872H155.882L147.938 128H143.57V110.864ZM163.328 128V110.864H176.888V128H173.264V113.888H166.952V128H163.328ZM191.699 128L190.451 123.92H184.211L182.963 128H179.051L185.099 110.792H189.539L195.611 128H191.699ZM188.339 116.888C188.259 116.616 188.155 116.272 188.027 115.856C187.899 115.44 187.771 115.016 187.643 114.584C187.515 114.152 187.411 113.776 187.331 113.456C187.251 113.776 187.139 114.176 186.995 114.656C186.867 115.12 186.739 115.568 186.611 116C186.499 116.416 186.411 116.712 186.347 116.888L185.123 120.872H189.587L188.339 116.888Z" fill="white"/>
</svg>
