<svg width="240" height="208" viewBox="0 0 240 208" fill="none" xmlns="http://www.w3.org/2000/svg">
<path d="M0 104L60 0.0769501H180L240 104L180 207.923H60L0 104Z" fill="#7F4F24"/>
<path d="M39.0753 104.408C39.0753 105.736 38.9073 106.944 38.5713 108.032C38.2513 109.104 37.7553 110.032 37.0833 110.816C36.4273 111.6 35.5793 112.2 34.5393 112.616C33.5153 113.032 32.3073 113.24 30.9153 113.24C29.5233 113.24 28.3073 113.032 27.2673 112.616C26.2433 112.184 25.3953 111.584 24.7233 110.816C24.0673 110.032 23.5713 109.096 23.2353 108.008C22.9153 106.92 22.7553 105.712 22.7553 104.384C22.7553 102.608 23.0433 101.064 23.6193 99.752C24.2113 98.44 25.1073 97.424 26.3073 96.704C27.5233 95.968 29.0673 95.6 30.9393 95.6C32.7953 95.6 34.3233 95.968 35.5233 96.704C36.7233 97.424 37.6113 98.448 38.1873 99.776C38.7793 101.088 39.0753 102.632 39.0753 104.408ZM26.5713 104.408C26.5713 105.608 26.7233 106.64 27.0273 107.504C27.3313 108.368 27.8033 109.032 28.4433 109.496C29.0833 109.96 29.9073 110.192 30.9153 110.192C31.9553 110.192 32.7873 109.96 33.4113 109.496C34.0513 109.032 34.5153 108.368 34.8033 107.504C35.1073 106.64 35.2593 105.608 35.2593 104.408C35.2593 102.6 34.9233 101.184 34.2513 100.16C33.5793 99.136 32.4753 98.624 30.9393 98.624C29.9153 98.624 29.0833 98.856 28.4433 99.32C27.8033 99.784 27.3313 100.448 27.0273 101.312C26.7233 102.176 26.5713 103.208 26.5713 104.408ZM42.6248 113V95.864H53.4488V98.864H46.2488V102.44H47.6888C49.3048 102.44 50.6248 102.664 51.6488 103.112C52.6888 103.56 53.4568 104.176 53.9528 104.96C54.4488 105.744 54.6968 106.64 54.6968 107.648C54.6968 108.768 54.4488 109.728 53.9528 110.528C53.4568 111.328 52.6888 111.944 51.6488 112.376C50.6088 112.792 49.2648 113 47.6168 113H42.6248ZM47.4728 110.024C48.5768 110.024 49.4408 109.848 50.0648 109.496C50.7048 109.144 51.0248 108.528 51.0248 107.648C51.0248 107.04 50.8648 106.576 50.5448 106.256C50.2408 105.936 49.8008 105.72 49.2248 105.608C48.6648 105.48 47.9848 105.416 47.1848 105.416H46.2488V110.024H47.4728ZM71.3455 95.864V109.976H73.6255V117.992H70.1215V113H59.3935V117.992H55.8895V109.976H57.2095C57.6575 109.08 58.0895 108.136 58.5055 107.144C58.9215 106.152 59.3055 105.088 59.6575 103.952C60.0255 102.816 60.3535 101.584 60.6415 100.256C60.9295 98.912 61.1695 97.448 61.3615 95.864H71.3455ZM64.2415 98.888C64.1295 99.72 63.9695 100.608 63.7615 101.552C63.5535 102.48 63.3055 103.432 63.0175 104.408C62.7455 105.384 62.4415 106.344 62.1055 107.288C61.7695 108.232 61.4095 109.128 61.0255 109.976H67.7215V98.888H64.2415ZM84.7057 107.984C84.2257 109.072 83.7137 110.016 83.1697 110.816C82.6417 111.6 81.9617 112.2 81.1297 112.616C80.2977 113.032 79.2097 113.24 77.8657 113.24C77.4497 113.24 76.9937 113.208 76.4977 113.144C76.0017 113.08 75.5457 112.992 75.1297 112.88V109.76C75.5137 109.92 75.9377 110.032 76.4017 110.096C76.8657 110.16 77.2977 110.192 77.6977 110.192C78.2257 110.192 78.6497 110.104 78.9697 109.928C79.3057 109.752 79.5697 109.512 79.7617 109.208C79.9697 108.888 80.1377 108.544 80.2657 108.176L74.3377 95.864H78.1777L81.3697 103.28C81.4497 103.44 81.5457 103.648 81.6577 103.904C81.7697 104.16 81.8817 104.424 81.9937 104.696C82.1057 104.968 82.1937 105.208 82.2577 105.416H82.3777C82.4417 105.224 82.5217 104.992 82.6177 104.72C82.7297 104.432 82.8417 104.144 82.9537 103.856C83.0817 103.552 83.1937 103.288 83.2897 103.064L86.2657 95.864H90.0097L84.7057 107.984ZM99.4197 113L95.2917 99.56H95.1957C95.2117 99.88 95.2357 100.36 95.2677 101C95.2997 101.64 95.3317 102.328 95.3637 103.064C95.3957 103.784 95.4117 104.44 95.4117 105.032V113H92.1717V95.864H97.1157L101.172 108.968H101.244L105.54 95.864H110.484V113H107.1V104.888C107.1 104.344 107.108 103.72 107.124 103.016C107.156 102.312 107.18 101.648 107.196 101.024C107.228 100.384 107.252 99.904 107.268 99.584H107.172L102.756 113H99.4197ZM114.812 113V95.864H118.436V102.44H119.612C121.196 102.44 122.5 102.664 123.524 103.112C124.548 103.56 125.3 104.176 125.78 104.96C126.276 105.744 126.524 106.64 126.524 107.648C126.524 108.768 126.276 109.728 125.78 110.528C125.284 111.328 124.516 111.944 123.476 112.376C122.452 112.792 121.124 113 119.492 113H114.812ZM119.396 110.024C120.468 110.024 121.308 109.848 121.916 109.496C122.54 109.144 122.852 108.528 122.852 107.648C122.852 107.04 122.708 106.576 122.42 106.256C122.148 105.936 121.74 105.72 121.196 105.608C120.652 105.48 119.996 105.416 119.228 105.416H118.436V110.024H119.396ZM128.612 113V95.864H132.236V113H128.612ZM141.89 95.864C143.41 95.864 144.682 96.008 145.706 96.296C146.746 96.568 147.522 97.024 148.034 97.664C148.562 98.288 148.826 99.136 148.826 100.208C148.826 100.848 148.722 101.432 148.514 101.96C148.306 102.488 148.002 102.92 147.602 103.256C147.218 103.592 146.746 103.808 146.186 103.904V104.024C146.762 104.136 147.282 104.336 147.746 104.624C148.21 104.912 148.578 105.328 148.85 105.872C149.122 106.416 149.258 107.136 149.258 108.032C149.258 109.072 149.002 109.968 148.49 110.72C147.994 111.456 147.274 112.024 146.33 112.424C145.386 112.808 144.266 113 142.97 113H136.562V95.864H141.89ZM142.298 102.656C143.354 102.656 144.082 102.488 144.482 102.152C144.898 101.816 145.106 101.328 145.106 100.688C145.106 100.032 144.866 99.56 144.386 99.272C143.906 98.984 143.146 98.84 142.106 98.84H140.186V102.656H142.298ZM140.186 105.536V110H142.562C143.65 110 144.41 109.792 144.842 109.376C145.274 108.944 145.49 108.376 145.49 107.672C145.49 107.24 145.394 106.864 145.202 106.544C145.026 106.224 144.714 105.976 144.266 105.8C143.818 105.624 143.21 105.536 142.442 105.536H140.186ZM163.175 113L161.927 108.92H155.687L154.439 113H150.527L156.575 95.792H161.015L167.087 113H163.175ZM159.815 101.888C159.735 101.616 159.631 101.272 159.503 100.856C159.375 100.44 159.247 100.016 159.119 99.584C158.991 99.152 158.887 98.776 158.807 98.456C158.727 98.776 158.615 99.176 158.471 99.656C158.343 100.12 158.215 100.568 158.087 101C157.975 101.416 157.887 101.712 157.823 101.888L156.599 105.872H161.063L159.815 101.888ZM183.298 113H179.674V105.608H172.882V113H169.258V95.864H172.882V102.584H179.674V95.864H183.298V113ZM187.609 95.864H190.873V104.144C190.873 104.544 190.865 104.992 190.849 105.488C190.833 105.984 190.817 106.472 190.801 106.952C190.785 107.416 190.769 107.824 190.753 108.176C190.737 108.512 190.721 108.744 190.705 108.872H190.777L198.697 95.864H203.041V113H199.801V104.768C199.801 104.336 199.809 103.864 199.825 103.352C199.841 102.824 199.857 102.32 199.873 101.84C199.905 101.36 199.929 100.944 199.945 100.592C199.977 100.224 200.001 99.984 200.017 99.872H199.921L191.977 113H187.609V95.864ZM217.231 113H207.367V95.864H217.231V98.84H210.991V102.608H216.799V105.584H210.991V110H217.231V113Z" fill="white"/>
</svg>
