<svg width="240" height="208" viewBox="0 0 240 208" fill="none" xmlns="http://www.w3.org/2000/svg">
<path d="M61.4434 205.423L2.88675 104L61.4434 2.57695H178.557L237.113 104L178.557 205.423H61.4434Z" fill="#A4AC86" fill-opacity="0.1" stroke="#A4AC86" stroke-width="5"/>
<path d="M40.1639 113V95.864H53.7239V113H50.0999V98.888H43.7879V113H40.1639ZM73.5987 104.408C73.5987 105.736 73.4307 106.944 73.0947 108.032C72.7747 109.104 72.2787 110.032 71.6067 110.816C70.9507 111.6 70.1027 112.2 69.0627 112.616C68.0387 113.032 66.8307 113.24 65.4387 113.24C64.0467 113.24 62.8307 113.032 61.7907 112.616C60.7667 112.184 59.9187 111.584 59.2467 110.816C58.5907 110.032 58.0947 109.096 57.7587 108.008C57.4387 106.92 57.2787 105.712 57.2787 104.384C57.2787 102.608 57.5667 101.064 58.1427 99.752C58.7347 98.44 59.6307 97.424 60.8307 96.704C62.0467 95.968 63.5907 95.6 65.4627 95.6C67.3187 95.6 68.8467 95.968 70.0467 96.704C71.2467 97.424 72.1347 98.448 72.7107 99.776C73.3027 101.088 73.5987 102.632 73.5987 104.408ZM61.0947 104.408C61.0947 105.608 61.2467 106.64 61.5507 107.504C61.8547 108.368 62.3267 109.032 62.9667 109.496C63.6067 109.96 64.4307 110.192 65.4387 110.192C66.4787 110.192 67.3107 109.96 67.9347 109.496C68.5747 109.032 69.0387 108.368 69.3267 107.504C69.6307 106.64 69.7827 105.608 69.7827 104.408C69.7827 102.6 69.4467 101.184 68.7747 100.16C68.1027 99.136 66.9987 98.624 65.4627 98.624C64.4387 98.624 63.6067 98.856 62.9667 99.32C62.3267 99.784 61.8547 100.448 61.5507 101.312C61.2467 102.176 61.0947 103.208 61.0947 104.408ZM77.1483 95.864H80.4123V104.144C80.4123 104.544 80.4043 104.992 80.3883 105.488C80.3723 105.984 80.3563 106.472 80.3403 106.952C80.3243 107.416 80.3083 107.824 80.2923 108.176C80.2763 108.512 80.2603 108.744 80.2443 108.872H80.3163L88.2363 95.864H92.5803V113H89.3403V104.768C89.3403 104.336 89.3483 103.864 89.3643 103.352C89.3803 102.824 89.3963 102.32 89.4123 101.84C89.4443 101.36 89.4683 100.944 89.4843 100.592C89.5163 100.224 89.5403 99.984 89.5563 99.872H89.4603L81.5163 113H77.1483V95.864ZM104.178 98.648C103.49 98.648 102.874 98.784 102.33 99.056C101.802 99.328 101.354 99.72 100.986 100.232C100.618 100.728 100.338 101.336 100.146 102.056C99.9701 102.776 99.8821 103.584 99.8821 104.48C99.8821 105.696 100.026 106.736 100.314 107.6C100.618 108.448 101.09 109.096 101.73 109.544C102.37 109.992 103.186 110.216 104.178 110.216C104.882 110.216 105.578 110.136 106.266 109.976C106.97 109.816 107.73 109.592 108.546 109.304V112.352C107.794 112.656 107.05 112.88 106.314 113.024C105.578 113.168 104.754 113.24 103.842 113.24C102.082 113.24 100.626 112.88 99.4741 112.16C98.3381 111.424 97.4981 110.4 96.9541 109.088C96.4101 107.76 96.1381 106.216 96.1381 104.456C96.1381 103.16 96.3141 101.976 96.6661 100.904C97.0181 99.816 97.5301 98.88 98.2021 98.096C98.8901 97.312 99.7301 96.704 100.722 96.272C101.73 95.84 102.882 95.624 104.178 95.624C105.026 95.624 105.874 95.736 106.722 95.96C107.586 96.168 108.41 96.456 109.194 96.824L108.018 99.776C107.378 99.472 106.73 99.208 106.074 98.984C105.434 98.76 104.802 98.648 104.178 98.648ZM126.155 113H122.027L115.811 104.312V113H112.187V95.864H115.811V104.168L121.955 95.864H125.819L119.579 104.096L126.155 113ZM132.883 95.864H136.147V104.144C136.147 104.544 136.139 104.992 136.123 105.488C136.107 105.984 136.091 106.472 136.075 106.952C136.059 107.416 136.043 107.824 136.027 108.176C136.011 108.512 135.995 108.744 135.979 108.872H136.051L143.971 95.864H148.315V113H145.075V104.768C145.075 104.336 145.083 103.864 145.099 103.352C145.115 102.824 145.131 102.32 145.147 101.84C145.179 101.36 145.203 100.944 145.219 100.592C145.251 100.224 145.275 99.984 145.291 99.872H145.195L137.251 113H132.883V95.864ZM166.056 95.864V109.976H168.336V117.992H164.832V113H154.104V117.992H150.6V109.976H151.92C152.368 109.08 152.8 108.136 153.216 107.144C153.632 106.152 154.016 105.088 154.368 103.952C154.736 102.816 155.064 101.584 155.352 100.256C155.64 98.912 155.88 97.448 156.072 95.864H166.056ZM158.952 98.888C158.84 99.72 158.68 100.608 158.472 101.552C158.264 102.48 158.016 103.432 157.728 104.408C157.456 105.384 157.152 106.344 156.816 107.288C156.48 108.232 156.12 109.128 155.736 109.976H162.432V98.888H158.952ZM180.833 113H170.969V95.864H180.833V98.84H174.593V102.608H180.401V105.584H174.593V110H180.833V113ZM198.198 90.224C198.118 91.056 197.886 91.792 197.502 92.432C197.118 93.056 196.518 93.544 195.702 93.896C194.886 94.248 193.79 94.424 192.414 94.424C191.006 94.424 189.902 94.256 189.102 93.92C188.318 93.568 187.758 93.08 187.422 92.456C187.086 91.832 186.886 91.088 186.822 90.224H190.014C190.094 91.104 190.318 91.688 190.686 91.976C191.054 92.264 191.654 92.408 192.486 92.408C193.174 92.408 193.734 92.256 194.166 91.952C194.614 91.632 194.878 91.056 194.958 90.224H198.198ZM184.398 95.864H187.662V104.144C187.662 104.544 187.654 104.992 187.638 105.488C187.622 105.984 187.606 106.472 187.59 106.952C187.574 107.416 187.558 107.824 187.542 108.176C187.526 108.512 187.51 108.744 187.494 108.872H187.566L195.486 95.864H199.83V113H196.59V104.768C196.59 104.336 196.598 103.864 196.614 103.352C196.63 102.824 196.646 102.32 196.662 101.84C196.694 101.36 196.718 100.944 196.734 100.592C196.766 100.224 196.79 99.984 196.806 99.872H196.71L188.766 113H184.398V95.864Z" fill="black"/>
</svg>
