<svg width="240" height="208" viewBox="0 0 240 208" fill="none" xmlns="http://www.w3.org/2000/svg">
<path d="M61.4434 205.423L2.88675 104L61.4434 2.57695H178.557L237.113 104L178.557 205.423H61.4434Z" fill="#582F0E" fill-opacity="0.1" stroke="#582F0E" stroke-width="5"/>
<path d="M31.4241 113H27.8001V98.888H23.1441V95.864H36.0801V98.888H31.4241V113ZM48.5865 113H38.7225V95.864H48.5865V98.84H42.3465V102.608H48.1545V105.584H42.3465V110H48.5865V113ZM59.4242 98.648C58.7362 98.648 58.1202 98.784 57.5762 99.056C57.0482 99.328 56.6002 99.72 56.2322 100.232C55.8642 100.728 55.5842 101.336 55.3922 102.056C55.2162 102.776 55.1282 103.584 55.1282 104.48C55.1282 105.696 55.2722 106.736 55.5602 107.6C55.8642 108.448 56.3362 109.096 56.9762 109.544C57.6162 109.992 58.4322 110.216 59.4242 110.216C60.1282 110.216 60.8242 110.136 61.5122 109.976C62.2162 109.816 62.9762 109.592 63.7922 109.304V112.352C63.0402 112.656 62.2962 112.88 61.5602 113.024C60.8242 113.168 60.0002 113.24 59.0882 113.24C57.3282 113.24 55.8722 112.88 54.7202 112.16C53.5842 111.424 52.7442 110.4 52.2002 109.088C51.6562 107.76 51.3842 106.216 51.3842 104.456C51.3842 103.16 51.5602 101.976 51.9122 100.904C52.2642 99.816 52.7762 98.88 53.4482 98.096C54.1362 97.312 54.9762 96.704 55.9682 96.272C56.9762 95.84 58.1282 95.624 59.4242 95.624C60.2722 95.624 61.1202 95.736 61.9682 95.96C62.8322 96.168 63.6562 96.456 64.4402 96.824L63.2642 99.776C62.6242 99.472 61.9762 99.208 61.3202 98.984C60.6802 98.76 60.0482 98.648 59.4242 98.648ZM74.0334 113H70.4094V98.888H65.7534V95.864H78.6894V98.888H74.0334V113ZM81.3319 95.864H84.5959V104.144C84.5959 104.544 84.5879 104.992 84.5719 105.488C84.5559 105.984 84.5399 106.472 84.5239 106.952C84.5079 107.416 84.4919 107.824 84.4759 108.176C84.4599 108.512 84.4439 108.744 84.4279 108.872H84.4999L92.4199 95.864H96.7639V113H93.5239V104.768C93.5239 104.336 93.5319 103.864 93.5479 103.352C93.5639 102.824 93.5799 102.32 93.5959 101.84C93.6279 101.36 93.6519 100.944 93.6679 100.592C93.6999 100.224 93.7239 99.984 93.7399 99.872H93.6439L85.6999 113H81.3319V95.864ZM106.562 95.864C108.77 95.864 110.378 96.344 111.386 97.304C112.41 98.248 112.922 99.552 112.922 101.216C112.922 101.968 112.81 102.688 112.586 103.376C112.362 104.048 111.986 104.656 111.458 105.2C110.946 105.728 110.266 106.144 109.418 106.448C108.57 106.752 107.522 106.904 106.274 106.904H104.714V113H101.09V95.864H106.562ZM106.37 98.84H104.714V103.928H105.914C106.602 103.928 107.194 103.84 107.69 103.664C108.186 103.488 108.57 103.208 108.842 102.824C109.114 102.44 109.25 101.944 109.25 101.336C109.25 100.488 109.018 99.864 108.554 99.464C108.09 99.048 107.362 98.84 106.37 98.84ZM131.712 104.408C131.712 105.736 131.544 106.944 131.208 108.032C130.888 109.104 130.392 110.032 129.72 110.816C129.064 111.6 128.216 112.2 127.176 112.616C126.152 113.032 124.944 113.24 123.552 113.24C122.16 113.24 120.944 113.032 119.904 112.616C118.88 112.184 118.032 111.584 117.36 110.816C116.704 110.032 116.208 109.096 115.872 108.008C115.552 106.92 115.392 105.712 115.392 104.384C115.392 102.608 115.68 101.064 116.256 99.752C116.848 98.44 117.744 97.424 118.944 96.704C120.16 95.968 121.704 95.6 123.576 95.6C125.432 95.6 126.96 95.968 128.16 96.704C129.36 97.424 130.248 98.448 130.824 99.776C131.416 101.088 131.712 102.632 131.712 104.408ZM119.208 104.408C119.208 105.608 119.36 106.64 119.664 107.504C119.968 108.368 120.44 109.032 121.08 109.496C121.72 109.96 122.544 110.192 123.552 110.192C124.592 110.192 125.424 109.96 126.048 109.496C126.688 109.032 127.152 108.368 127.44 107.504C127.744 106.64 127.896 105.608 127.896 104.408C127.896 102.6 127.56 101.184 126.888 100.16C126.216 99.136 125.112 98.624 123.576 98.624C122.552 98.624 121.72 98.856 121.08 99.32C120.44 99.784 119.968 100.448 119.664 101.312C119.36 102.176 119.208 103.208 119.208 104.408ZM140.59 95.864C142.11 95.864 143.382 96.008 144.406 96.296C145.446 96.568 146.222 97.024 146.734 97.664C147.262 98.288 147.526 99.136 147.526 100.208C147.526 100.848 147.422 101.432 147.214 101.96C147.006 102.488 146.702 102.92 146.302 103.256C145.918 103.592 145.446 103.808 144.886 103.904V104.024C145.462 104.136 145.982 104.336 146.446 104.624C146.91 104.912 147.278 105.328 147.55 105.872C147.822 106.416 147.958 107.136 147.958 108.032C147.958 109.072 147.702 109.968 147.19 110.72C146.694 111.456 145.974 112.024 145.03 112.424C144.086 112.808 142.966 113 141.67 113H135.262V95.864H140.59ZM140.998 102.656C142.054 102.656 142.782 102.488 143.182 102.152C143.598 101.816 143.806 101.328 143.806 100.688C143.806 100.032 143.566 99.56 143.086 99.272C142.606 98.984 141.846 98.84 140.806 98.84H138.886V102.656H140.998ZM138.886 105.536V110H141.262C142.35 110 143.11 109.792 143.542 109.376C143.974 108.944 144.19 108.376 144.19 107.672C144.19 107.24 144.094 106.864 143.902 106.544C143.726 106.224 143.414 105.976 142.966 105.8C142.518 105.624 141.91 105.536 141.142 105.536H138.886ZM161.875 113L160.627 108.92H154.387L153.139 113H149.227L155.275 95.792H159.715L165.787 113H161.875ZM158.515 101.888C158.435 101.616 158.331 101.272 158.203 100.856C158.075 100.44 157.947 100.016 157.819 99.584C157.691 99.152 157.587 98.776 157.507 98.456C157.427 98.776 157.315 99.176 157.171 99.656C157.043 100.12 156.915 100.568 156.787 101C156.675 101.416 156.587 101.712 156.523 101.888L155.299 105.872H159.763L158.515 101.888ZM181.997 113H178.373V105.608H171.581V113H167.957V95.864H171.581V102.584H178.373V95.864H181.997V113ZM186.308 95.864H189.572V104.144C189.572 104.544 189.564 104.992 189.548 105.488C189.532 105.984 189.516 106.472 189.5 106.952C189.484 107.416 189.468 107.824 189.452 108.176C189.436 108.512 189.42 108.744 189.404 108.872H189.476L197.396 95.864H201.74V113H198.5V104.768C198.5 104.336 198.508 103.864 198.524 103.352C198.54 102.824 198.556 102.32 198.572 101.84C198.604 101.36 198.628 100.944 198.644 100.592C198.676 100.224 198.7 99.984 198.716 99.872H198.62L190.676 113H186.308V95.864ZM215.93 113H206.066V95.864H215.93V98.84H209.69V102.608H215.498V105.584H209.69V110H215.93V113Z" fill="black"/>
</svg>
