<svg width="240" height="208" viewBox="0 0 240 208" fill="none" xmlns="http://www.w3.org/2000/svg">
<path d="M0 104L60 0.0769501H180L240 104L180 207.923H60L0 104Z" fill="#414833"/>
<path d="M47.8875 113H44.2635V105.608H37.4715V113H33.8475V95.864H37.4715V102.584H44.2635V95.864H47.8875V113ZM62.6871 113L61.4391 108.92H55.1991L53.9511 113H50.0391L56.0871 95.792H60.5271L66.5991 113H62.6871ZM59.3271 101.888C59.2471 101.616 59.1431 101.272 59.0151 100.856C58.8871 100.44 58.7591 100.016 58.6311 99.584C58.5031 99.152 58.3991 98.776 58.3191 98.456C58.2391 98.776 58.1271 99.176 57.9831 99.656C57.8551 100.12 57.7271 100.568 57.5991 101C57.4871 101.416 57.3991 101.712 57.3351 101.888L56.1111 105.872H60.5751L59.3271 101.888ZM68.7694 113V95.864H79.5934V98.864H72.3934V102.44H73.8334C75.4494 102.44 76.7694 102.664 77.7934 103.112C78.8334 103.56 79.6014 104.176 80.0974 104.96C80.5934 105.744 80.8414 106.64 80.8414 107.648C80.8414 108.768 80.5934 109.728 80.0974 110.528C79.6014 111.328 78.8334 111.944 77.7934 112.376C76.7534 112.792 75.4094 113 73.7614 113H68.7694ZM73.6174 110.024C74.7214 110.024 75.5854 109.848 76.2094 109.496C76.8494 109.144 77.1694 108.528 77.1694 107.648C77.1694 107.04 77.0094 106.576 76.6894 106.256C76.3854 105.936 75.9454 105.72 75.3694 105.608C74.8094 105.48 74.1294 105.416 73.3294 105.416H72.3934V110.024H73.6174ZM97.6341 113H94.0101V98.888H89.8101C89.7141 99.624 89.6101 100.424 89.4981 101.288C89.4021 102.152 89.2901 103.032 89.1621 103.928C89.0501 104.808 88.9301 105.648 88.8021 106.448C88.6741 107.232 88.5461 107.928 88.4181 108.536C88.2101 109.528 87.9301 110.376 87.5781 111.08C87.2421 111.784 86.7701 112.32 86.1621 112.688C85.5701 113.056 84.7941 113.24 83.8341 113.24C83.5141 113.24 83.2101 113.216 82.9221 113.168C82.6341 113.12 82.3621 113.056 82.1061 112.976V110C82.3141 110.064 82.5141 110.12 82.7061 110.168C82.9141 110.216 83.1381 110.24 83.3781 110.24C83.6981 110.24 83.9621 110.136 84.1701 109.928C84.3781 109.72 84.5621 109.368 84.7221 108.872C84.8821 108.36 85.0421 107.656 85.2021 106.76C85.2821 106.376 85.3781 105.832 85.4901 105.128C85.6021 104.408 85.7301 103.568 85.8741 102.608C86.0341 101.632 86.1941 100.576 86.3541 99.44C86.5141 98.288 86.6661 97.096 86.8101 95.864H97.6341V113ZM124.085 104.408C124.085 105.736 123.933 106.944 123.629 108.032C123.325 109.104 122.853 110.032 122.213 110.816C121.589 111.6 120.797 112.2 119.837 112.616C118.877 113.032 117.749 113.24 116.453 113.24C114.853 113.24 113.509 112.928 112.421 112.304C111.349 111.664 110.517 110.776 109.925 109.64C109.349 108.488 108.997 107.144 108.869 105.608H105.581V113H101.957V95.864H105.581V102.584H108.941C109.117 101.16 109.501 99.928 110.093 98.888C110.701 97.832 111.533 97.024 112.589 96.464C113.645 95.888 114.941 95.6 116.477 95.6C118.205 95.6 119.629 95.968 120.749 96.704C121.885 97.424 122.725 98.448 123.269 99.776C123.813 101.088 124.085 102.632 124.085 104.408ZM112.589 104.408C112.589 105.608 112.725 106.64 112.997 107.504C113.269 108.368 113.693 109.032 114.269 109.496C114.845 109.96 115.573 110.192 116.453 110.192C117.365 110.192 118.109 109.96 118.685 109.496C119.261 109.032 119.677 108.368 119.933 107.504C120.205 106.64 120.341 105.608 120.341 104.408C120.341 103.208 120.205 102.176 119.933 101.312C119.677 100.448 119.261 99.784 118.685 99.32C118.125 98.856 117.397 98.624 116.501 98.624C115.605 98.624 114.861 98.856 114.269 99.32C113.693 99.784 113.269 100.448 112.997 101.312C112.725 102.176 112.589 103.208 112.589 104.408ZM140.592 95.864V109.976H142.872V117.992H139.368V113H128.64V117.992H125.136V109.976H126.456C126.904 109.08 127.336 108.136 127.752 107.144C128.168 106.152 128.552 105.088 128.904 103.952C129.272 102.816 129.6 101.584 129.888 100.256C130.176 98.912 130.416 97.448 130.608 95.864H140.592ZM133.488 98.888C133.376 99.72 133.216 100.608 133.008 101.552C132.8 102.48 132.552 103.432 132.264 104.408C131.992 105.384 131.688 106.344 131.352 107.288C131.016 108.232 130.656 109.128 130.272 109.976H136.968V98.888H133.488ZM155.368 113H145.504V95.864H155.368V98.84H149.128V102.608H154.936V105.584H149.128V110H155.368V113ZM172.973 113H169.349V105.608H162.557V113H158.933V95.864H162.557V102.584H169.349V95.864H172.973V113ZM177.285 95.864H180.549V104.144C180.549 104.544 180.541 104.992 180.525 105.488C180.509 105.984 180.493 106.472 180.477 106.952C180.461 107.416 180.445 107.824 180.429 108.176C180.413 108.512 180.397 108.744 180.381 108.872H180.453L188.373 95.864H192.717V113H189.477V104.768C189.477 104.336 189.485 103.864 189.501 103.352C189.517 102.824 189.533 102.32 189.549 101.84C189.581 101.36 189.605 100.944 189.621 100.592C189.653 100.224 189.677 99.984 189.693 99.872H189.597L181.653 113H177.285V95.864ZM206.907 113H197.043V95.864H206.907V98.84H200.667V102.608H206.475V105.584H200.667V110H206.907V113Z" fill="white"/>
</svg>
