<svg width="240" height="208" viewBox="0 0 240 208" fill="none" xmlns="http://www.w3.org/2000/svg">
<path d="M61.4434 205.423L2.88675 104L61.4434 2.57695H178.557L237.113 104L178.557 205.423H61.4434Z" fill="#333D29" fill-opacity="0.1" stroke="#333D29" stroke-width="5"/>
<path d="M39.2381 113V95.864H52.7981V113H49.1741V98.888H42.8621V113H39.2381ZM72.6729 104.408C72.6729 105.736 72.5049 106.944 72.1689 108.032C71.8489 109.104 71.3529 110.032 70.6809 110.816C70.0249 111.6 69.1769 112.2 68.1369 112.616C67.1129 113.032 65.9049 113.24 64.5129 113.24C63.1209 113.24 61.9049 113.032 60.8649 112.616C59.8409 112.184 58.9929 111.584 58.3209 110.816C57.6649 110.032 57.1689 109.096 56.8329 108.008C56.5129 106.92 56.3529 105.712 56.3529 104.384C56.3529 102.608 56.6409 101.064 57.2169 99.752C57.8089 98.44 58.7049 97.424 59.9049 96.704C61.1209 95.968 62.6649 95.6 64.5369 95.6C66.3929 95.6 67.9209 95.968 69.1209 96.704C70.3209 97.424 71.2089 98.448 71.7849 99.776C72.3769 101.088 72.6729 102.632 72.6729 104.408ZM60.1689 104.408C60.1689 105.608 60.3209 106.64 60.6249 107.504C60.9289 108.368 61.4009 109.032 62.0409 109.496C62.6809 109.96 63.5049 110.192 64.5129 110.192C65.5529 110.192 66.3849 109.96 67.0089 109.496C67.6489 109.032 68.1129 108.368 68.4009 107.504C68.7049 106.64 68.8569 105.608 68.8569 104.408C68.8569 102.6 68.5209 101.184 67.8489 100.16C67.1769 99.136 66.0729 98.624 64.5369 98.624C63.5129 98.624 62.6809 98.856 62.0409 99.32C61.4009 99.784 60.9289 100.448 60.6249 101.312C60.3209 102.176 60.1689 103.208 60.1689 104.408ZM90.2625 113H86.6385V105.608H79.8465V113H76.2225V95.864H79.8465V102.584H86.6385V95.864H90.2625V113ZM94.5741 95.864H97.8381V104.144C97.8381 104.544 97.8301 104.992 97.8141 105.488C97.7981 105.984 97.7821 106.472 97.7661 106.952C97.7501 107.416 97.7341 107.824 97.7181 108.176C97.7021 108.512 97.6861 108.744 97.6701 108.872H97.7421L105.662 95.864H110.006V113H106.766V104.768C106.766 104.336 106.774 103.864 106.79 103.352C106.806 102.824 106.822 102.32 106.838 101.84C106.87 101.36 106.894 100.944 106.91 100.592C106.942 100.224 106.966 99.984 106.982 99.872H106.886L98.9421 113H94.5741V95.864ZM121.58 113L117.452 99.56H117.356C117.372 99.88 117.396 100.36 117.428 101C117.46 101.64 117.492 102.328 117.524 103.064C117.556 103.784 117.572 104.44 117.572 105.032V113H114.332V95.864H119.276L123.332 108.968H123.404L127.7 95.864H132.644V113H129.26V104.888C129.26 104.344 129.268 103.72 129.284 103.016C129.316 102.312 129.34 101.648 129.356 101.024C129.388 100.384 129.412 99.904 129.428 99.584H129.332L124.916 113H121.58ZM147.461 113L146.213 108.92H139.973L138.725 113H134.812L140.861 95.792H145.301L151.373 113H147.461ZM144.101 101.888C144.021 101.616 143.917 101.272 143.789 100.856C143.661 100.44 143.533 100.016 143.405 99.584C143.277 99.152 143.173 98.776 143.093 98.456C143.013 98.776 142.901 99.176 142.757 99.656C142.629 100.12 142.501 100.568 142.373 101C142.261 101.416 142.173 101.712 142.109 101.888L140.885 105.872H145.349L144.101 101.888ZM167.583 113H163.959V105.608H157.167V113H153.543V95.864H157.167V102.584H163.959V95.864H167.583V113ZM171.894 95.864H175.158V104.144C175.158 104.544 175.15 104.992 175.134 105.488C175.118 105.984 175.102 106.472 175.086 106.952C175.07 107.416 175.054 107.824 175.038 108.176C175.022 108.512 175.006 108.744 174.99 108.872H175.062L182.982 95.864H187.326V113H184.086V104.768C184.086 104.336 184.094 103.864 184.11 103.352C184.126 102.824 184.142 102.32 184.158 101.84C184.19 101.36 184.214 100.944 184.23 100.592C184.262 100.224 184.286 99.984 184.302 99.872H184.206L176.262 113H171.894V95.864ZM201.516 113H191.652V95.864H201.516V98.84H195.276V102.608H201.084V105.584H195.276V110H201.516V113Z" fill="black"/>
</svg>
